# xmcd
#
# Track frame offsets: 
#        150
#        18687
#        37234
#        54970
#        71837
#        83190
#        96453
#        111703
#        129859
#        148925
#
# Disc length: 2208 seconds
#
# Revision: 0
# Processed by: cddbd v1.5.2PL0 Copyright (c) Steve Scherf et al.
# Submitted via: ExactAudioCopy v0.99pb4
#
DISCID=9a089e0a
DTITLE=ไม้  พิสิฐพงศ์ - ผู้ชายคนนี้ไม่ได้มีไว้ให้เธอทิ้ง
DYEAR=2008
DGENRE=Country
TTITLE0=ผู้ชายคนนี้ ไม่ได้มีไว้ให้เธอทิ้ง
TTITLE1=อยากโทรหาเธอ
TTITLE2=ศุกร์เสาร์ คนขี้เหงามาเจอกัน
TTITLE3=รวมกันเราอยู่
TTITLE4=แมวไม่อยู่ หนูมีกิ๊ก
TTITLE5=คนหลายใจ
TTITLE6=I Love You ฮู้บ่
TTITLE7=จัดให้ไม่ต้องขอ
TTITLE8=ปกาสตราว
TTITLE9=ฝากเรียกชื่อ
EXTD=
EXTT0=
EXTT1=
EXTT2=
EXTT3=
EXTT4=
EXTT5=
EXTT6=
EXTT7=
EXTT8=
EXTT9=
PLAYORDER=
